<svg xmlns="http://www.w3.org/2000/svg" xml:space="preserve" viewBox="0 0 512 256"><path fill="#717272" d="M273.07 119.47v25.6l-16.213 9.131c1.877-15.019 2.133-29.525.939-43.179z"/><path fill="#bdbdbd" d="M247.47 204.8h247.47v17.067H247.47z"/><circle cx="128" cy="128" r="51.2" fill="#717272"/><path fill="#ffc107" d="M220.59 53.589c-17.835-24.235-46.08-36.523-84.053-36.523-72.277 0-99.84 17.237-119.47 45.312v176.56h213.33v-42.496c0-.427 0-.939.085-1.451s.171-.939.341-1.451c17.238-55.466 13.398-107.86-10.239-139.95zm-92.587 142.68c-37.632 0-68.267-30.635-68.267-68.267s30.635-68.267 68.267-68.267 68.267 30.635 68.267 68.267-30.635 68.267-68.267 68.267z"/><path d="M128 59.733c-37.632 0-68.267 30.635-68.267 68.267S90.368 196.267 128 196.267s68.267-30.635 68.267-68.267S165.632 59.733 128 59.733zm0 119.47c-28.245 0-51.2-22.955-51.2-51.2s22.955-51.2 51.2-51.2 51.2 22.955 51.2 51.2-22.955 51.2-51.2 51.2z"/><path d="M503.47 187.73H250.8l3.84-11.605s9.045-4.949 32.085-20.224c2.133-1.451 3.413-3.84 3.413-6.315v-35.243a7.527 7.527 0 0 0-2.816-5.888c-10.496-8.533-33.109-20.395-33.109-20.395-4.011-16.896-10.581-32-19.883-44.629C213.424 15.016 179.632-.003 136.538-.003c-81.408 0-112.9 22.016-135.08 55.04a8.254 8.254 0 0 0-1.45 4.693v187.73c0 4.694 3.84 8.534 8.533 8.534h230.4c4.693 0 8.533-3.84 8.533-8.533v-8.533h247.47v8.533c0 4.693 3.84 8.533 8.533 8.533s8.533-3.84 8.533-8.533v-51.2c.001-4.694-3.839-8.534-8.532-8.534zm-245.68-76.714 15.275 8.448v25.6l-16.213 9.131c1.877-15.019 2.133-29.526.938-43.179zm-26.965 82.517c-.171.512-.256.939-.341 1.451s-.085 1.024-.085 1.451v42.496H17.069V62.371c19.627-28.075 47.189-45.312 119.47-45.312 37.973 0 66.219 12.288 84.053 36.523 23.637 32.085 27.477 84.479 10.24 139.95zm264.11 28.331h-247.47v-17.067h247.47v17.067z"/><path fill="#f9a825" d="M220.59 53.589c-4.924-6.69-10.718-12.373-17.203-17.237.043.06.094.111.137.171 23.637 32.085 27.477 84.48 10.24 139.95-.171.512-.256.939-.341 1.451s-.085 1.024-.085 1.451v42.496H17.068v17.067h213.33v-42.496c0-.427 0-.939.085-1.451s.171-.939.341-1.451c17.238-55.468 13.398-107.86-10.239-139.95z"/><path fill="#555656" d="M168.7 97.058c1.246 4.42 1.963 9.062 1.963 13.875 0 28.245-22.955 51.2-51.2 51.2-16.614 0-31.351-7.979-40.704-20.258 6.058 21.504 25.804 37.325 49.237 37.325 28.245 0 51.2-22.955 51.2-51.2 0-11.631-3.942-22.332-10.496-30.942z"/><path fill="#90a4ae" d="M247.47 213.33v8.54h247.46V204.8h-8.53v8.53z"/><path fill="#555656" d="M258.28 136.24c-.239 5.897-.666 11.87-1.425 17.954l16.213-9.131v-14.054z"/></svg>